<svg width="89" height="38" viewBox="0 0 89 38" fill="none" xmlns="http://www.w3.org/2000/svg">
<path d="M0.72 29V0.759999H7V29H0.72ZM5.56 29V23.48H19.52V29H5.56ZM31.6294 29.44C29.6294 29.44 27.816 29 26.1894 28.12C24.5894 27.2133 23.3227 25.9867 22.3894 24.44C21.456 22.8933 20.9894 21.16 20.9894 19.24C20.9894 17.32 21.456 15.6 22.3894 14.08C23.3227 12.56 24.5894 11.36 26.1894 10.48C27.7894 9.57333 29.6027 9.12 31.6294 9.12C33.656 9.12 35.4694 9.56 37.0694 10.44C38.6694 11.32 39.936 12.5333 40.8694 14.08C41.8027 15.6 42.2694 17.32 42.2694 19.24C42.2694 21.16 41.8027 22.8933 40.8694 24.44C39.936 25.9867 38.6694 27.2133 37.0694 28.12C35.4694 29 33.656 29.44 31.6294 29.44ZM31.6294 23.88C32.5094 23.88 33.2827 23.6933 33.9494 23.32C34.616 22.92 35.1227 22.3733 35.4694 21.68C35.8427 20.96 36.0294 20.1467 36.0294 19.24C36.0294 18.3333 35.8427 17.5467 35.4694 16.88C35.096 16.1867 34.576 15.6533 33.9094 15.28C33.2694 14.88 32.5094 14.68 31.6294 14.68C30.776 14.68 30.016 14.88 29.3494 15.28C28.6827 15.6533 28.1627 16.1867 27.7894 16.88C27.416 17.5733 27.2294 18.3733 27.2294 19.28C27.2294 20.16 27.416 20.96 27.7894 21.68C28.1627 22.3733 28.6827 22.92 29.3494 23.32C30.016 23.6933 30.776 23.88 31.6294 23.88ZM53.5563 37.72C51.4229 37.72 49.5429 37.3467 47.9163 36.6C46.3163 35.88 45.0496 34.8533 44.1163 33.52L47.8763 29.76C48.5696 30.5867 49.3429 31.2133 50.1963 31.64C51.0763 32.0667 52.1296 32.28 53.3563 32.28C54.8763 32.28 56.0629 31.9067 56.9163 31.16C57.7963 30.4133 58.2363 29.36 58.2363 28V23.04L59.2763 18.8L58.3563 14.56V9.56H64.3563V27.84C64.3563 29.84 63.8896 31.5733 62.9563 33.04C62.0229 34.5067 60.7429 35.6533 59.1163 36.48C57.4896 37.3067 55.6363 37.72 53.5563 37.72ZM53.2763 28.4C51.4896 28.4 49.9029 27.9733 48.5163 27.12C47.1296 26.2667 46.0363 25.1067 45.2363 23.64C44.4363 22.1733 44.0363 20.5467 44.0363 18.76C44.0363 16.9467 44.4363 15.32 45.2363 13.88C46.0363 12.4133 47.1296 11.2667 48.5163 10.44C49.9029 9.58667 51.4896 9.16 53.2763 9.16C54.6096 9.16 55.7963 9.41333 56.8363 9.92C57.9029 10.4 58.7563 11.0933 59.3963 12C60.0629 12.88 60.4363 13.9067 60.5163 15.08V22.48C60.4363 23.6267 60.0629 24.6533 59.3963 25.56C58.7563 26.44 57.9029 27.1333 56.8363 27.64C55.7696 28.1467 54.5829 28.4 53.2763 28.4ZM54.4363 22.96C55.2896 22.96 56.0229 22.7733 56.6363 22.4C57.2763 22.0267 57.7563 21.5333 58.0763 20.92C58.4229 20.28 58.5963 19.56 58.5963 18.76C58.5963 17.96 58.4229 17.24 58.0763 16.6C57.7563 15.96 57.2763 15.4533 56.6363 15.08C56.0229 14.7067 55.2896 14.52 54.4363 14.52C53.6096 14.52 52.8763 14.7067 52.2363 15.08C51.5963 15.4533 51.1029 15.96 50.7563 16.6C50.4096 17.24 50.2363 17.96 50.2363 18.76C50.2363 19.5067 50.4096 20.2133 50.7563 20.88C51.1029 21.52 51.5829 22.0267 52.1963 22.4C52.8363 22.7733 53.5829 22.96 54.4363 22.96ZM78.0356 29.44C76.0356 29.44 74.2223 29 72.5956 28.12C70.9956 27.2133 69.729 25.9867 68.7956 24.44C67.8623 22.8933 67.3956 21.16 67.3956 19.24C67.3956 17.32 67.8623 15.6 68.7956 14.08C69.729 12.56 70.9956 11.36 72.5956 10.48C74.1956 9.57333 76.009 9.12 78.0356 9.12C80.0623 9.12 81.8756 9.56 83.4756 10.44C85.0756 11.32 86.3423 12.5333 87.2756 14.08C88.209 15.6 88.6756 17.32 88.6756 19.24C88.6756 21.16 88.209 22.8933 87.2756 24.44C86.3423 25.9867 85.0756 27.2133 83.4756 28.12C81.8756 29 80.0623 29.44 78.0356 29.44ZM78.0356 23.88C78.9156 23.88 79.689 23.6933 80.3556 23.32C81.0223 22.92 81.529 22.3733 81.8756 21.68C82.249 20.96 82.4356 20.1467 82.4356 19.24C82.4356 18.3333 82.249 17.5467 81.8756 16.88C81.5023 16.1867 80.9823 15.6533 80.3156 15.28C79.6756 14.88 78.9156 14.68 78.0356 14.68C77.1823 14.68 76.4223 14.88 75.7556 15.28C75.089 15.6533 74.569 16.1867 74.1956 16.88C73.8223 17.5733 73.6356 18.3733 73.6356 19.28C73.6356 20.16 73.8223 20.96 74.1956 21.68C74.569 22.3733 75.089 22.92 75.7556 23.32C76.4223 23.6933 77.1823 23.88 78.0356 23.88Z" fill="#1C75CE"/>
</svg>
