<svg width="24" height="24" viewBox="0 0 24 24" fill="none" xmlns="http://www.w3.org/2000/svg">
<path d="M12.0186 2.91C8.70862 2.91 6.01862 5.6 6.01862 8.91V11.8C6.01862 12.41 5.75862 13.34 5.44862 13.86L4.29862 15.77C3.58862 16.95 4.07862 18.26 5.37862 18.7C9.68862 20.14 14.3386 20.14 18.6486 18.7C19.8586 18.3 20.3886 16.87 19.7286 15.77L18.5786 13.86C18.2786 13.34 18.0186 12.41 18.0186 11.8V8.91C18.0186 5.61 15.3186 2.91 12.0186 2.91Z" stroke="#6B7280" stroke-width="1.5" stroke-miterlimit="10" stroke-linecap="round"/>
<path d="M13.87 3.2C13.56 3.11 13.24 3.04 12.91 3C11.95 2.88 11.03 2.95 10.17 3.2C10.46 2.46 11.18 1.94 12.02 1.94C12.86 1.94 13.58 2.46 13.87 3.2Z" stroke="#6B7280" stroke-width="1.5" stroke-miterlimit="10" stroke-linecap="round" stroke-linejoin="round"/>
<path d="M15.0195 19.06C15.0195 20.71 13.6695 22.06 12.0195 22.06C11.1995 22.06 10.4395 21.72 9.89953 21.18C9.35953 20.64 9.01953 19.88 9.01953 19.06" stroke="#6B7280" stroke-width="1.5" stroke-miterlimit="10"/>
</svg>
